<?xml version="1.0" encoding="iso-8859-1"?>
<!-- Uploaded to: SVG Repo, www.svgrepo.com, Generator: SVG Repo Mixer Tools -->
<!DOCTYPE svg PUBLIC "-//W3C//DTD SVG 1.1//EN" "http://www.w3.org/Graphics/SVG/1.1/DTD/svg11.dtd">
<svg fill="#000000" version="1.1" id="Capa_1" xmlns="http://www.w3.org/2000/svg" xmlns:xlink="http://www.w3.org/1999/xlink" 
	 width="800px" height="800px" viewBox="0 0 229.803 229.803"
	 xml:space="preserve">
<g>
	<g>
		<path d="M228.757,93.355c-10.621-2.587-17.213,3.686-27.084,14.114c-1.925,2.041-3.808,4.245-5.712,6.476
			c-0.501,0.583-1.007,1.165-1.497,1.745c1.692-6.19,0.311-12.097-4.319-17.038c0.296-0.448,0.622-0.854,0.802-1.371
			c0.596-1.735,0.49-3.609-0.321-5.271c-1.63-3.322-5.859-4.817-9.197-3.193c-3.417,1.674-4.841,5.795-3.186,9.233
			c1.15,2.345,3.576,3.85,6.191,3.85c1.044,0,2.062-0.231,3.001-0.686c0.332-0.155,0.548-0.419,0.817-0.619
			c5.731,6.204,5.621,13.99-0.237,22.024c-6.028,5.843-12.994,10.178-22.676,9.312c-0.043,0-0.079-0.021-0.116-0.021
			c1.598-12.171-5.479-24.242-17.487-28.456c-8.273-2.897-17.175-2.401-25.059,1.396c-1.318,0.63-2.558,1.381-3.744,2.159
			l2.916-4.313c0.279-0.412,0.311-0.947,0.073-1.39c-0.231-0.443-0.69-0.723-1.191-0.723h-2.12c0.166-0.475,0.316-0.983,0.316-1.5
			c0-0.844-0.295-1.59-0.693-2.271c2.323-0.29,5.408-1.068,7.57-3.262c3.876-3.937,3.259-10.821,3.259-10.821
			s-6.897-0.517-10.771,3.417c-1.23,1.245-1.975,2.811-2.468,4.337v-2.035c0-6.117,4.691-11.119,10.655-11.707
			c0.479,0.643,1.213,1.086,2.072,1.086c1.45,0,2.595-1.168,2.595-2.587c0-1.452-1.16-2.6-2.595-2.6
			c-1.013,0-1.866,0.585-2.305,1.427c-4.329,0.422-8.115,2.7-10.476,6.091v-8.656c0.738-0.454,1.242-1.237,1.242-2.17
			c0-1.442-1.173-2.592-2.592-2.592c-1.458,0-2.603,1.17-2.603,2.592c0,0.946,0.527,1.711,1.252,2.18v8.651
			c-2.371-3.396-6.178-5.674-10.5-6.096c-0.43-0.831-1.268-1.427-2.294-1.427c-1.437,0-2.603,1.163-2.603,2.6
			c0,1.435,1.182,2.587,2.603,2.587c0.87,0,1.598-0.443,2.072-1.086c5.962,0.582,10.671,5.576,10.671,11.707v2.046
			c-0.496-1.532-1.236-3.083-2.468-4.348c-3.881-3.934-10.766-3.417-10.766-3.417s-0.622,6.885,3.251,10.821
			c2.165,2.194,5.268,2.998,7.581,3.267c-0.401,0.675-0.696,1.421-0.696,2.265c0,0.543,0.118,1.025,0.306,1.5h-2.12
			c-0.503,0-0.962,0.279-1.2,0.723c-0.243,0.443-0.2,0.978,0.082,1.39l2.911,4.303c-1.21-0.788-2.426-1.519-3.739-2.148
			c-7.889-3.797-16.767-4.293-25.049-1.396c-6.676,2.345-12.042,7.13-15.116,13.521c-2.273,4.715-3.056,9.872-2.381,14.955
			c-9.233,0.527-16.01-3.681-21.869-9.344c-5.833-8.008-5.935-15.773-0.211-21.978c0.28,0.19,0.501,0.454,0.81,0.609
			c0.944,0.467,1.943,0.698,3.008,0.698c2.608,0,5.044-1.513,6.188-3.862c1.674-3.428,0.232-7.555-3.188-9.218
			c-3.352-1.629-7.57-0.145-9.194,3.188c-0.794,1.664-0.918,3.52-0.319,5.271c0.177,0.517,0.517,0.923,0.799,1.371
			c-4.611,4.941-6.009,10.858-4.319,17.044c-0.503-0.585-1.015-1.179-1.498-1.751c-1.906-2.23-3.768-4.435-5.711-6.476
			c-9.877-10.444-16.451-16.69-27.082-14.104c-0.725,0.166-1.168,0.907-0.994,1.635c0.166,0.725,0.87,1.173,1.635,0.994
			c8.557-2.112,14.236,2.658,22.623,11.427c-6.389-2.607-12.788-1.761-18.356,2.813c-0.578,0.475-0.662,1.316-0.188,1.906
			c0.475,0.588,1.329,0.665,1.901,0.188c6.916-5.68,15.087-4.838,23.023,2.36c0.082,0.087,0.19,0.066,0.277,0.114
			c0.274,0.324,0.551,0.608,0.82,0.936c0.886,1.034,1.767,2.078,2.668,3.111c-2.107-0.686-4.267-0.859-6.529-0.406
			c-0.092-0.611-0.255-1.207-0.578-1.771c-0.973-1.614-2.76-2.592-4.034-2.731c-3.617-0.346-6.549,0.738-8.898,3.195
			c-6.326,6.607-5.746,21.125-5.735,21.732c0.021,0.5,0.312,0.943,0.76,1.154c0.185,0.095,0.39,0.132,0.591,0.132
			c0.274,0,0.551-0.084,0.788-0.253c4.385-3.133,7.111-3.977,9.848-4.293c6.637-0.748,12.2-1.877,12.954-8.025
			c0.319-2.489-0.192-4.515-1.511-6.033c-0.248-0.285-0.562-0.396-0.831-0.617c4.406,0.375,8.548,3.67,13.197,7.889
			c0.134,0.111,0.319,0.111,0.48,0.18c4.714,3.459,10.141,5.785,16.93,5.785c0.778,0,1.553-0.053,2.365-0.111
			c0.208,0.865,0.335,1.74,0.63,2.59c3.926,11.153,16.205,17.027,27.351,13.162c2.734-0.959,5.033-2.584,6.874-4.566
			c-0.074,0.559-0.172,1.107-0.172,1.682c0,8.543,6.956,15.504,15.504,15.504c8.546,0,15.491-6.961,15.491-15.504
			c0-0.585-0.111-1.139-0.169-1.703c1.856,1.994,4.14,3.629,6.86,4.588c2.357,0.812,4.726,1.203,7.088,1.203
			c8.864,0,17.191-5.521,20.292-14.354c0.322-0.886,0.438-1.793,0.648-2.7c0.158,0.021,0.316,0.09,0.485,0.11
			c0.965,0.09,1.909,0.111,2.811,0.111c6.787,0,12.208-2.331,16.928-5.774c0.164-0.068,0.333-0.068,0.491-0.19
			c4.646-4.213,8.796-7.504,13.193-7.889c-0.29,0.222-0.58,0.343-0.827,0.633c-1.318,1.503-1.83,3.538-1.514,6.017
			c0.775,6.176,6.317,7.293,12.957,8.026c2.736,0.327,5.463,1.171,9.845,4.293c0.237,0.169,0.518,0.264,0.791,0.264
			c0.201,0,0.406-0.053,0.591-0.132c0.448-0.211,0.738-0.654,0.76-1.166c0.026-0.596,0.591-15.124-5.737-21.727
			c-2.363-2.452-5.194-3.535-8.907-3.195c-1.266,0.129-3.043,1.118-4.023,2.731c-0.338,0.56-0.501,1.16-0.58,1.777
			c-2.257-0.454-4.425-0.274-6.528,0.411c0.896-1.033,1.793-2.072,2.668-3.122c0.29-0.332,0.564-0.611,0.822-0.938
			c0.085-0.045,0.195-0.034,0.274-0.11c7.932-7.204,16.095-8.023,23.024-2.363c0.563,0.48,1.429,0.382,1.903-0.185
			s0.391-1.437-0.189-1.912c-5.569-4.575-11.977-5.421-18.357-2.813c8.406-8.765,14.064-13.521,22.623-11.417
			c0.76,0.185,1.466-0.269,1.635-1.002C229.922,94.262,229.48,93.531,228.757,93.355z M188.405,96.405
			c-0.358,1.052-1.123,1.901-2.136,2.381c-2.004,0.988-4.614,0.087-5.59-1.912c-1.007-2.085-0.121-4.606,1.94-5.611
			c0.57-0.274,1.187-0.417,1.819-0.417c1.619,0,3.059,0.901,3.771,2.365C188.71,94.207,188.78,95.34,188.405,96.405z M41.574,93.197
			c0.707-1.464,2.149-2.365,3.771-2.365c0.63,0,1.237,0.14,1.819,0.416c2.078,1.016,2.948,3.515,1.938,5.606
			c-0.989,2.004-3.57,2.911-5.595,1.912c-1.015-0.488-1.759-1.329-2.138-2.37C41.018,95.34,41.089,94.207,41.574,93.197z
			 M20.34,132.903c-2.341,0.264-5.041,0.886-8.978,3.344c0.113-4.271,0.878-13.005,4.983-17.287
			c1.561-1.629,3.417-2.426,5.674-2.426c0.335,0,0.665,0.021,1.015,0.053c0.433,0.059,1.463,0.564,1.994,1.445
			c0.227,0.369,0.276,0.78,0.232,1.191c-2.566,1.087-5.237,3.049-8.068,6.17c-0.512,0.564-0.464,1.419,0.087,1.914
			c0.562,0.512,1.405,0.48,1.912-0.084c2.555-2.8,4.889-4.551,7.111-5.5c0.023,0.011,0.045,0.021,0.082,0.021
			c0.021,0,2.365,0.068,3.689,1.571c0.788,0.907,1.086,2.226,0.87,3.929C30.489,130.741,28.111,132.017,20.34,132.903z
			 M85.259,105.212c6.631-1.535,13.5-0.917,19.717,2.078c2.808,1.35,5.339,3.09,7.539,5.157c-2.853,3.19-5.081,6.94-6.558,11.101
			c-0.129,0.412-0.079,0.876,0.174,1.239c0.253,0.364,0.665,0.564,1.103,0.564h4.596c-0.05,0.074-0.113,0.095-0.153,0.143
			l-4.912,7.262c-0.282,0.416-0.319,0.949-0.076,1.392c0,0.011,0.005,0.011,0.005,0.011c-1.107,0.644-2.154,1.393-3.071,2.289
			c0.398-2.711,0.253-5.517-0.715-8.279c-2.597-7.383-10.739-11.302-18.122-8.701c-0.279,0.1-0.522,0.242-0.789,0.358
			C85.692,115.316,86.201,110.283,85.259,105.212z M68.418,118.148c2.769-5.732,7.575-10.036,13.592-12.137
			c0.203-0.077,0.419-0.098,0.625-0.15c1.2,6.657-0.19,13.289-3.916,18.246c-3.024,4.028-7.415,6.57-12.44,7.478
			C65.668,127.028,66.383,122.387,68.418,118.148z M91.318,147.827c-9.756,3.438-20.493-1.725-23.915-11.496
			c-0.248-0.707-0.34-1.424-0.525-2.131c3.776-0.706,7.241-2.215,10.13-4.556c-0.113,1.54,0.098,3.111,0.612,4.614
			c1.748,4.988,7.225,7.604,12.24,5.885c4.121-1.455,6.302-5.975,4.857-10.109c-0.251-0.723-1.016-1.064-1.709-0.833
			c-0.707,0.253-1.073,1.013-0.83,1.714c0.949,2.737-0.491,5.732-3.214,6.666c-3.573,1.239-7.539-0.633-8.78-4.219
			c-0.789-2.258-0.651-4.678,0.375-6.851c1.036-2.146,2.845-3.76,5.102-4.556c5.988-2.109,12.577,1.064,14.689,7.061
			C103.049,136.71,98.986,145.137,91.318,147.827z M108.739,158.922c-4.201-2.1-7.117-6.408-7.117-11.412
			c0-4.999,2.916-9.312,7.117-11.412c-1.664,2.816-2.689,6.835-2.689,11.412S107.086,156.117,108.739,158.922z M113.077,159.839
			c-2.247-1.392-4.327-6.043-4.327-12.329s2.081-10.938,4.327-12.329V159.839z M113.077,122.641h-3.857
			c0.994-2.363,2.339-4.482,3.857-6.466V122.641z M123.864,107.285c6.507-3.13,13.747-3.676,20.646-1.852
			c-0.918,5.189-0.375,10.342,1.455,14.882c-0.602-0.332-1.234-0.654-1.903-0.886c-7.426-2.579-15.541,1.329-18.131,8.712
			c-0.965,2.752-1.112,5.574-0.712,8.273c-1.018-0.991-2.193-1.787-3.459-2.479c0.063-0.143,0.174-0.273,0.174-0.442
			c0-0.417-0.195-0.786-0.495-1.039l-4.723-6.972c-0.042-0.063-0.113-0.09-0.161-0.143h5.031c0.438,0,0.849-0.211,1.102-0.564
			c0.254-0.353,0.322-0.796,0.164-1.238c-1.461-4.156-3.697-7.916-6.558-11.101C118.519,110.38,121.058,108.634,123.864,107.285z
			 M115.777,116.186c1.511,1.982,2.86,4.113,3.852,6.455h-3.852V116.186z M115.777,159.839v-24.658
			c2.241,1.402,4.311,6.043,4.311,12.329S118.012,158.437,115.777,159.839z M120.098,158.932c1.65-2.815,2.689-6.845,2.689-11.422
			s-1.039-8.596-2.689-11.412c4.197,2.1,7.114,6.418,7.114,11.412C127.212,152.52,124.295,156.823,120.098,158.932z
			 M161.431,136.331c-3.428,9.771-14.159,14.935-23.92,11.507c-7.673-2.689-11.729-11.127-9.044-18.784
			c2.104-5.99,8.69-9.154,14.702-7.066c2.246,0.785,4.061,2.399,5.089,4.566c1.039,2.152,1.187,4.588,0.385,6.846
			c-0.606,1.729-1.861,3.132-3.518,3.938c-1.655,0.786-3.522,0.907-5.263,0.296c-1.323-0.465-2.384-1.414-2.995-2.669
			c-0.606-1.26-0.686-2.684-0.222-4.002c0.243-0.712-0.121-1.466-0.822-1.709c-0.701-0.231-1.472,0.116-1.725,0.812
			c-0.701,2.004-0.564,4.16,0.338,6.075c0.923,1.914,2.531,3.343,4.529,4.05c2.41,0.838,5.021,0.696,7.325-0.411
			c2.305-1.098,4.05-3.049,4.889-5.479c0.633-1.814,0.759-3.713,0.475-5.563c2.868,2.658,6.407,4.435,10.299,5.311
			C161.8,134.791,161.701,135.571,161.431,136.331z M162.565,131.405c-4.625-1.039-8.664-3.507-11.496-7.309
			c-3.659-4.873-5.047-11.377-3.934-17.956C157.703,110.008,163.91,120.626,162.565,131.405z M199.732,123.305
			c1.313-1.519,3.682-1.582,3.713-1.582c0.026,0,0.048-0.011,0.079-0.021c2.22,0.949,4.566,2.7,7.104,5.5
			c0.527,0.56,1.376,0.586,1.914,0.085c0.549-0.496,0.58-1.351,0.084-1.914c-2.831-3.096-5.511-5.062-8.068-6.159
			c-0.042-0.412,0.017-0.812,0.243-1.203c0.527-0.87,1.55-1.392,1.972-1.444c0.349-0.032,0.686-0.053,1.019-0.053
			c2.257,0,4.113,0.791,5.674,2.426c4.103,4.282,4.856,13.015,4.983,17.286c-3.939-2.457-6.64-3.08-8.98-3.344
			c-7.763-0.886-10.146-2.151-10.584-5.685C198.657,125.531,198.941,124.212,199.732,123.305z"/>
	</g>
</g>
</svg>