<?xml version="1.0" encoding="iso-8859-1"?>
<!-- Uploaded to: SVG Repo, www.svgrepo.com, Generator: SVG Repo Mixer Tools -->
<!DOCTYPE svg PUBLIC "-//W3C//DTD SVG 1.1//EN" "http://www.w3.org/Graphics/SVG/1.1/DTD/svg11.dtd">
<svg fill="#000000" version="1.1" id="Capa_1" xmlns="http://www.w3.org/2000/svg" xmlns:xlink="http://www.w3.org/1999/xlink" 
	 width="800px" height="800px" viewBox="0 0 169.372 169.372"
	 xml:space="preserve">
<g>
	<path d="M161.167,84.686c4.788-1.873,8.194-6.497,8.194-11.935c0-8.548-6.95-15.504-15.504-15.504
		c-9.724,0-17.655,7.436-18.625,16.907l-1.351-0.907c-0.675-0.448-1.519-0.49-2.226-0.119c-0.706,0.379-1.149,1.113-1.149,1.912
		v3.198c-0.696-0.24-1.435-0.448-2.204-0.448c-3.032,0-5.548,2.001-6.465,4.733h-2.12c-0.021,0-0.053-0.017-0.085-0.017
		c-0.728-0.031-1.455-0.026-2.162,0.011c-3.67-0.269-7.098-1.748-9.851-4.264c-3.259-2.977-5.146-7.037-5.337-11.443
		c-0.152-3.396,1.023-6.647,3.322-9.152c2.289-2.505,5.432-3.971,8.828-4.121c3.939-0.103,7.483,2.123,9.154,5.456
		c-2.014,0.274-3.554,2.014-3.47,4.087c0.105,2.225,1.973,3.941,4.188,3.85c1.481-0.063,2.7-0.965,3.343-2.205
		c0.781-0.351,1.318-1.15,1.271-2.057c-0.343-7.75-7.072-13.845-14.708-13.439c-4.556,0.2-8.748,2.154-11.817,5.513
		c-1.14,1.242-1.988,2.655-2.711,4.138c-0.084-0.087-0.121-0.19-0.195-0.272c-1.782-1.927-4.208-3.045-6.839-3.148
		c-3.243-0.135-6.176,1.7-7.646,4.445c-1.464-2.721-4.396-4.543-7.604-4.445c-2.829,0.113-5.313,1.437-7.045,3.43
		c-0.714-1.479-1.572-2.9-2.718-4.148c-3.062-3.359-7.272-5.312-11.815-5.513c-7.652-0.443-14.336,5.697-14.697,13.449
		c-0.045,0.913,0.506,1.709,1.279,2.06c0.643,1.231,1.854,2.133,3.333,2.191c2.212,0.098,4.092-1.625,4.174-3.839
		c0.114-2.083-1.442-3.823-3.467-4.097c1.674-3.338,5.2-5.553,9.157-5.456c3.404,0.15,6.542,1.608,8.836,4.121
		c2.294,2.51,3.478,5.761,3.319,9.163c-0.192,4.396-2.104,8.451-5.339,11.428c-2.748,2.516-6.188,3.994-9.846,4.264
		c-0.723-0.037-1.45-0.048-2.165-0.011c-0.037,0-0.058,0.016-0.087,0.016h-2.125c-0.92-2.727-3.425-4.722-6.46-4.722
		c-0.783,0-1.5,0.203-2.202,0.448v-3.209c0-0.799-0.443-1.535-1.152-1.912c-0.702-0.372-1.566-0.335-2.223,0.119l-1.972,1.339
		c-0.778-9.677-8.817-17.339-18.689-17.339C6.945,57.242,0,64.198,0,72.746c0,5.437,3.415,10.062,8.203,11.934
		C3.415,86.547,0,91.177,0,96.613c0,8.549,6.945,15.504,15.493,15.504c9.867,0,17.896-7.651,18.689-17.323l1.972,1.34
		c0.367,0.242,0.789,0.358,1.223,0.358c0.335,0,0.699-0.079,1.016-0.248c0.709-0.374,1.152-1.112,1.152-1.908v-3.207
		c0.702,0.243,1.435,0.448,2.202,0.448c3.04,0,5.548-1.993,6.465-4.729h2.123c0.026,0,0.047,0.016,0.084,0.016
		c0.73,0.042,1.463,0.031,2.167-0.011c3.665,0.274,7.09,1.751,9.843,4.267c3.251,2.984,5.146,7.045,5.342,11.443
		c0.14,3.396-1.028,6.649-3.322,9.154s-5.432,3.971-8.833,4.118c-3.971,0.164-7.517-2.088-9.17-5.447
		c2.03-0.264,3.576-2.015,3.488-4.087c-0.108-2.226-1.969-3.944-4.184-3.85c-1.485,0.063-2.7,0.965-3.338,2.204
		c-0.789,0.343-1.318,1.149-1.273,2.057c0.334,7.536,6.6,13.453,14.067,13.453c0.206,0,0.411-0.011,0.614-0.021
		c4.559-0.189,8.759-2.146,11.82-5.511c1.142-1.244,1.999-2.658,2.713-4.14c0.084,0.09,0.124,0.185,0.203,0.274
		c1.783,1.92,4.208,3.037,6.837,3.148c0.113,0,0.227,0.005,0.334,0.005c3.144,0,5.891-1.793,7.302-4.425
		c1.402,2.632,4.145,4.425,7.287,4.425c0.111,0,0.232,0,0.333-0.005c2.821-0.116,5.31-1.445,7.045-3.434
		c0.712,1.477,1.571,2.896,2.711,4.15c3.068,3.359,7.282,5.311,11.822,5.511c0.195,0.011,0.406,0.021,0.606,0.021
		c7.479,0,13.732-5.923,14.07-13.464c0.042-0.912-0.507-1.708-1.276-2.062c-0.644-1.233-1.856-2.136-3.333-2.188
		c-2.215-0.105-4.092,1.624-4.171,3.839c-0.111,2.083,1.439,3.823,3.464,4.098c-1.688,3.364-5.247,5.616-9.154,5.453
		c-3.406-0.143-6.539-1.608-8.838-4.119c-2.294-2.51-3.486-5.764-3.322-9.165c0.2-4.388,2.099-8.442,5.347-11.428
		c2.742-2.516,6.181-3.986,9.835-4.261c0.723,0.048,1.461,0.053,2.173,0.016c0.021,0,0.053-0.021,0.084-0.021h2.126
		c0.928,2.731,3.428,4.725,6.465,4.725c0.78,0,1.492-0.195,2.199-0.448v3.217c0,0.791,0.442,1.534,1.149,1.909
		c0.321,0.169,0.664,0.248,1.018,0.248c0.422,0,0.844-0.116,1.224-0.364l1.34-0.912c0.98,9.471,8.912,16.901,18.646,16.901
		c8.543,0,15.493-6.956,15.493-15.504C169.361,91.177,165.955,86.547,161.167,84.686z M65.361,81.444
		c4.105-3.752,6.497-8.878,6.74-14.423c0.01-0.185-0.032-0.361-0.026-0.546c0.134-0.303,0.232-0.627,0.216-0.983
		c-0.061-1.469,0.459-2.871,1.458-3.952c1.01-1.078,2.365-1.706,3.829-1.767c1.463-0.105,2.705,0.683,3.449,1.833
		c-0.533,0.501-0.852,1.2-0.825,1.985c0.066,1.437,1.273,2.566,2.711,2.502c0.535-0.019,0.993-0.232,1.399-0.52
		c0.27-0.058,0.527-0.155,0.749-0.309c0.216,0.143,0.453,0.232,0.715,0.293c0.397,0.298,0.867,0.511,1.416,0.535
		c1.429,0.053,2.646-1.065,2.699-2.513c0.037-0.783-0.306-1.479-0.817-1.98c0.729-1.139,1.946-1.917,3.454-1.827
		c1.461,0.061,2.812,0.688,3.829,1.767c0.991,1.081,1.492,2.479,1.455,3.942c-0.021,0.351,0.085,0.675,0.211,0.978
		c0.011,0.185-0.031,0.356-0.021,0.546c0.242,5.556,2.637,10.687,6.739,14.434c0.433,0.393,0.896,0.73,1.35,1.078h-20.64
		c-0.201,0-0.361,0.063-0.562,0.116c-0.184-0.053-0.355-0.116-0.562-0.116H64.043C64.46,82.175,64.929,81.838,65.361,81.444z
		 M30.035,93.275c0,8.005-6.508,14.518-14.516,14.518c-6.178,0-11.177-5.02-11.177-11.18c0-3.443,2.057-6.407,4.999-7.746
		c0.293,1.697,1.701,3.021,3.488,3.021c1.978,0,3.597-1.604,3.597-3.592c0-1.191-0.614-2.204-1.511-2.857
		c-0.071-0.279-0.185-0.533-0.351-0.76c0.166-0.227,0.295-0.479,0.351-0.77c0.896-0.654,1.511-1.661,1.511-2.854
		c0-1.982-1.619-3.596-3.597-3.596c-1.782,0-3.211,1.324-3.488,3.024c-2.942-1.345-4.999-4.295-4.999-7.739
		c0-6.167,5.015-11.185,11.177-11.185c7.992,0,14.516,6.513,14.516,14.51c0,0.411,0.145,0.777,0.345,1.102l-5.287,3.581
		c-1.429,0.973-2.252,2.396-2.252,3.921c-0.005,1.529,0.81,2.964,2.252,3.938l5.281,3.565C30.18,92.521,30.035,92.875,30.035,93.275
		z M104.699,87.928c-4.108,3.755-6.497,8.887-6.74,14.424c-0.01,0.184,0.032,0.363,0.021,0.553
		c-0.137,0.301-0.232,0.628-0.211,0.981c0.053,1.472-0.464,2.874-1.461,3.955c-1.018,1.07-2.367,1.698-3.828,1.767
		c-1.382,0.063-2.643-0.723-3.428-1.861c0.527-0.501,0.828-1.192,0.796-1.957c-0.063-1.444-1.271-2.573-2.7-2.51
		c-0.537,0.026-0.996,0.232-1.402,0.527c-0.269,0.058-0.527,0.147-0.749,0.306c-0.216-0.143-0.453-0.231-0.714-0.29
		c-0.398-0.301-0.868-0.512-1.414-0.543c-1.437-0.053-2.647,1.065-2.71,2.521c-0.035,0.786,0.319,1.492,0.856,1.999
		c-0.686,1.117-1.867,1.893-3.488,1.809c-1.463-0.068-2.813-0.696-3.823-1.767c-0.999-1.081-1.5-2.479-1.458-3.944
		c0.019-0.343-0.09-0.676-0.216-0.976c-0.005-0.185,0.04-0.358,0.029-0.554c-0.242-5.548-2.637-10.685-6.739-14.434
		c-0.433-0.396-0.901-0.728-1.355-1.081h20.282c0.2,0,0.371-0.063,0.562-0.11c0.174,0.047,0.345,0.11,0.562,0.11h20.648
		C105.596,87.2,105.131,87.527,104.699,87.928z M153.857,107.793c-7.994,0-14.512-6.507-14.512-14.512
		c0-0.27-0.069-0.527-0.148-0.766l5.759-3.918c1.435-0.97,2.257-2.389,2.257-3.918s-0.812-2.964-2.257-3.947l-5.759-3.899
		c0.096-0.237,0.148-0.49,0.148-0.762c0-8.003,6.507-14.521,14.512-14.521c6.181,0,11.18,5.018,11.18,11.185
		c0,3.438-2.057,6.399-4.999,7.736c-0.29-1.693-1.698-3.011-3.491-3.011c-1.972,0-3.596,1.603-3.596,3.591
		c0,1.191,0.622,2.199,1.519,2.853c0.063,0.285,0.179,0.538,0.343,0.765c-0.164,0.228-0.296,0.48-0.343,0.765
		c-0.896,0.654-1.519,1.661-1.519,2.858c0,1.983,1.624,3.597,3.596,3.597c1.783,0,3.217-1.324,3.491-3.032
		c2.942,1.345,4.999,4.292,4.999,7.747C165.037,102.778,160.027,107.793,153.857,107.793z"/>
</g>
</svg>